<?xml version="1.0" encoding="UTF-8"?>
<svg width="1024" height="1024" viewBox="0 0 1024 1024" xmlns="http://www.w3.org/2000/svg" fill="none">
  <defs>
    <radialGradient id="coinGrad" cx="0.3" cy="0.2" r="0.9">
      <stop offset="0%" stop-color="#fff1e6" stop-opacity="0.9"/>
      <stop offset="50%" stop-color="#f7931a" stop-opacity="1"/>
      <stop offset="100%" stop-color="#d97311" stop-opacity="1"/>
    </radialGradient>
    <filter id="bevel" x="-20%" y="-20%" width="140%" height="140%">
      <feGaussianBlur stdDeviation="8" result="b"/>
      <feSpecularLighting in="b" surfaceScale="2" specularConstant="0.6" specularExponent="20" lighting-color="#ffffff" result="spec">
        <fePointLight x="-500" y="-800" z="1200"/>
      </feSpecularLighting>
      <feComposite in="spec" in2="SourceGraphic" operator="arithmetic" k1="0" k2="1" k3="1" k4="0"/>
    </filter>
  </defs>

  <!-- transparent background, circular coin -->
  <circle cx="512" cy="512" r="420" fill="url(#coinGrad)" />
  <!-- subtle inner ring -->
  <circle cx="512" cy="512" r="360" fill="#000" opacity="0.04" />
  <g transform="translate(312 280) scale(1.4)" fill="#fff">
    <path d="M246.5 133.3c-2.7-18.1-18.9-29.8-38.3-29.8H131.5v-83.6H77.8v83.6H39.6v53.4h38.2v211.8H39.6v53.4h38.2v83.6h55.7v-83.6h76.7c19.4 0 35.6-11.7 38.3-29.8l20.2-135.5c2.8-18.8-10.4-36.7-29.8-39.4zM161.7 347.5h-76.7v-126.9h76.7c8.8 0 15.3 6.5 14.5 15.3l-6.2 96.3c-.8 8.8-8.7 15.3-14.5 15.3z" />
  </g>

</svg>
